<svg width="1920" height="1080" viewBox="0 0 1920 1080" fill="none" xmlns="http://www.w3.org/2000/svg">
<rect width="1920" height="1080" fill="url(#paint0_linear_5_10)"/>
<circle cx="296.531" cy="259.531" r="157.5" transform="rotate(-97.4241 296.531 259.531)" fill="url(#paint1_linear_5_10)"/>
<circle cx="1574.62" cy="883.619" r="78.1732" transform="rotate(-48.2097 1574.62 883.619)" fill="url(#paint2_linear_5_10)"/>
<circle cx="307.709" cy="873.709" r="101.002" transform="rotate(105.006 307.709 873.709)" fill="url(#paint3_linear_5_10)"/>
<circle cx="1263.71" cy="170.709" r="101.002" transform="rotate(105.006 1263.71 170.709)" fill="url(#paint4_linear_5_10)"/>
<circle cx="922.709" cy="883.71" r="101.002" transform="rotate(-153.771 922.709 883.71)" fill="url(#paint5_linear_5_10)"/>
<circle cx="1678.5" cy="417.5" r="157.5" fill="url(#paint6_linear_5_10)"/>
<circle cx="734.06" cy="505.06" r="102.864" transform="rotate(-49.3089 734.06 505.06)" fill="url(#paint7_linear_5_10)"/>
<defs>
<linearGradient id="paint0_linear_5_10" x1="1920" y1="1080" x2="-1.69873e-05" y2="3.01997e-05" gradientUnits="userSpaceOnUse">
<stop/>
<stop offset="0.505208" stop-color="#F97316" stop-opacity="0.5"/>
<stop offset="1" stop-color="#DB2777" stop-opacity="0"/>
</linearGradient>
<linearGradient id="paint1_linear_5_10" x1="454.031" y1="102.031" x2="139.031" y2="417.031" gradientUnits="userSpaceOnUse">
<stop stop-color="#DB2777"/>
<stop offset="1" stop-color="white" stop-opacity="0"/>
</linearGradient>
<linearGradient id="paint2_linear_5_10" x1="1652.79" y1="805.446" x2="1496.45" y2="961.792" gradientUnits="userSpaceOnUse">
<stop stop-color="#DB2777"/>
<stop offset="1" stop-color="white" stop-opacity="0"/>
</linearGradient>
<linearGradient id="paint3_linear_5_10" x1="408.712" y1="772.707" x2="206.707" y2="974.712" gradientUnits="userSpaceOnUse">
<stop stop-color="white" stop-opacity="0.4"/>
<stop offset="1" stop-color="white" stop-opacity="0"/>
</linearGradient>
<linearGradient id="paint4_linear_5_10" x1="1364.71" y1="69.7073" x2="1162.71" y2="271.712" gradientUnits="userSpaceOnUse">
<stop stop-color="white" stop-opacity="0.4"/>
<stop offset="1" stop-color="white" stop-opacity="0"/>
</linearGradient>
<linearGradient id="paint5_linear_5_10" x1="1023.71" y1="782.707" x2="821.707" y2="984.712" gradientUnits="userSpaceOnUse">
<stop stop-color="white" stop-opacity="0.4"/>
<stop offset="1" stop-color="white" stop-opacity="0"/>
</linearGradient>
<linearGradient id="paint6_linear_5_10" x1="1836" y1="260" x2="1521" y2="575" gradientUnits="userSpaceOnUse">
<stop stop-color="#F97316"/>
<stop offset="1" stop-color="white" stop-opacity="0"/>
</linearGradient>
<linearGradient id="paint7_linear_5_10" x1="836.924" y1="402.196" x2="631.196" y2="607.924" gradientUnits="userSpaceOnUse">
<stop stop-color="#F97316"/>
<stop offset="1" stop-color="white" stop-opacity="0"/>
</linearGradient>
</defs>
</svg>
